<svg width="800" height="200" viewBox="0 0 800 200" fill="none" xmlns="http://www.w3.org/2000/svg">
  <rect width="800" height="200" fill="#060D0B"/>
  <rect x="0" y="0" width="800" height="200" fill="url(#bg-glow)"/>
  <defs>
    <radialGradient id="bg-glow" cx="25%" cy="50%" r="40%">
      <stop offset="0%" stop-color="rgba(16,185,129,0.06)"/>
      <stop offset="100%" stop-color="transparent"/>
    </radialGradient>
  </defs>
  <!-- Icon centered at ~100px from left, vertically centered -->
  <g transform="translate(56, 48) scale(1.18)">
    <rect x="26" y="16" width="48" height="62" rx="7" stroke="rgba(16,185,129,0.1)" stroke-width="1.2" fill="rgba(16,185,129,0.015)"/>
    <rect x="16" y="9" width="48" height="62" rx="7" stroke="rgba(16,185,129,0.22)" stroke-width="1.4" fill="rgba(4,12,8,0.85)"/>
    <line x1="26" y1="26" x2="54" y2="26" stroke="rgba(16,185,129,0.12)" stroke-width="1.1" stroke-linecap="round"/>
    <line x1="26" y1="34" x2="54" y2="34" stroke="rgba(16,185,129,0.12)" stroke-width="1.1" stroke-linecap="round"/>
    <line x1="26" y1="42" x2="42" y2="42" stroke="rgba(16,185,129,0.12)" stroke-width="1.1" stroke-linecap="round"/>
    <rect x="5" y="2" width="52" height="68" rx="7" stroke="rgba(16,185,129,0.58)" stroke-width="1.5" fill="#040C08"/>
    <line x1="15" y1="18" x2="47" y2="18" stroke="rgba(16,185,129,0.3)" stroke-width="1.2" stroke-linecap="round"/>
    <line x1="15" y1="27" x2="47" y2="27" stroke="rgba(16,185,129,0.3)" stroke-width="1.2" stroke-linecap="round"/>
    <line x1="15" y1="36" x2="34" y2="36" stroke="rgba(16,185,129,0.3)" stroke-width="1.2" stroke-linecap="round"/>
    <path d="M8 53 L17 53 L20 46 L23 60 L27 40 L31 53" stroke="rgba(16,185,129,0.2)" stroke-width="1.2" stroke-linecap="round" stroke-linejoin="round" fill="none"/>
    <path d="M31 53 L35 53 L38 45 L42 65 L46 35 L50 53 L54 47 L58 53 L86 53" stroke="#10B981" stroke-width="2.2" stroke-linecap="round" stroke-linejoin="round" fill="none"/>
    <path d="M70 53 L86 53" stroke="#10B981" stroke-width="2.2" stroke-linecap="round" opacity="0.15"/>
    <circle cx="35" cy="53" r="2.6" fill="#10B981" opacity="0.9"/>
    <circle cx="35" cy="53" r="6.5" fill="#10B981" opacity="0.07"/>
  </g>
  <!-- Wordmark -->
  <text x="190" y="118" font-family="Georgia, serif" font-weight="700" font-size="72" letter-spacing="3" fill="#E8F5F0">Medyra</text>
  <!-- Tagline -->
  <line x1="190" y1="136" x2="560" y2="136" stroke="rgba(16,185,129,0.2)" stroke-width="1"/>
  <text x="192" y="156" font-family="Arial, sans-serif" font-weight="300" font-size="13" letter-spacing="5" fill="rgba(16,185,129,0.5)" text-transform="uppercase">YOUR HEALTH, FINALLY EXPLAINED.</text>
</svg>
